<svg width="351" height="70" viewBox="0 0 351 70" fill="none" xmlns="http://www.w3.org/2000/svg">
<path d="M47.2607 10.3608C47.2607 14.7033 38.788 20.6507 23.6599 20.6507C8.53177 20.6507 0.059082 14.1251 0.059082 9.23972C0.059082 5.58159 8.59077 0 23.6599 0C38.729 0 47.2607 5.58161 47.2607 10.3608Z" fill="#D0171A"/>
<path d="M47.2607 10.3608C47.2607 14.7033 38.788 20.6507 23.6599 20.6507C8.53177 20.6507 0.059082 14.1251 0.059082 9.23972C0.059082 5.58159 8.59077 0 23.6599 0C38.729 0 47.2607 5.58161 47.2607 10.3608Z" fill="white"/>
<path d="M25.902 32.5219C37.5962 31.9319 46.7887 26.8459 47.1428 20.5799V14.6797C45.7031 20.3793 36.8528 24.8635 25.8076 25.4063V32.5573L25.902 32.5219Z" fill="#D0171A"/>
<path d="M25.902 32.5219C37.5962 31.9319 46.7887 26.8459 47.1428 20.5799V14.6797C45.7031 20.3793 36.8528 24.8635 25.8076 25.4063V32.5573L25.902 32.5219Z" fill="white"/>
<path d="M21.335 32.5219C9.64077 31.9319 0.44825 26.8459 0.0942383 20.5799V14.6797C1.53389 20.3793 10.3842 24.8635 21.4294 25.4063V32.5573L21.335 32.5219Z" fill="#D0171A"/>
<path d="M21.335 32.5219C9.64077 31.9319 0.44825 26.8459 0.0942383 20.5799V14.6797C1.53389 20.3793 10.3842 24.8635 21.4294 25.4063V32.5573L21.335 32.5219Z" fill="white"/>
<path d="M21.335 44.5937C9.64077 44.0155 0.44825 38.9295 0.0942383 32.6635V26.7633C1.53389 32.4629 10.3842 36.9589 21.4294 37.4899V44.6409L21.335 44.5937Z" fill="#D0171A"/>
<path d="M21.335 44.5937C9.64077 44.0155 0.44825 38.9295 0.0942383 32.6635V26.7633C1.53389 32.4629 10.3842 36.9589 21.4294 37.4899V44.6409L21.335 44.5937Z" fill="white"/>
<path d="M47.2607 38.7289V58.6834V58.0698C46.8595 64.3358 37.667 69.4218 26.02 70.0118V49.5145C36.9708 48.9127 45.8211 44.4285 47.2607 38.7289Z" fill="#D0171A"/>
<path d="M47.2607 38.7289V58.6834V58.0698C46.8595 64.3358 37.667 69.4218 26.02 70.0118V49.5145C36.9708 48.9127 45.8211 44.4285 47.2607 38.7289Z" fill="white"/>
<path d="M0.0942383 58.0698C0.495452 64.3358 9.68797 69.4218 21.335 70.0118C9.66437 69.41 0.495452 64.324 0.0942383 58.0698Z" fill="#D0171A"/>
<path d="M0.0942383 58.0698C0.495452 64.3358 9.68797 69.4218 21.335 70.0118C9.66437 69.41 0.495452 64.324 0.0942383 58.0698Z" fill="white"/>
<path d="M21.335 54.4943V49.5145C10.3842 48.9835 1.59289 44.5584 0.0942383 38.8942V58.0934C0.495452 64.3476 9.66437 69.4336 21.335 70.0236V54.4943Z" fill="#D0171A"/>
<path d="M21.335 54.4943V49.5145C10.3842 48.9835 1.59289 44.5584 0.0942383 38.8942V58.0934C0.495452 64.3476 9.66437 69.4336 21.335 70.0236V54.4943Z" fill="white"/>
<path d="M76.1954 44.5937C74.9086 45.8739 73.3911 46.8989 71.7231 47.6147C69.9949 48.3314 68.1423 48.7003 66.2713 48.7003C64.4003 48.7003 62.5477 48.3314 60.8195 47.6147C59.154 46.9059 57.6398 45.8844 56.3589 44.6055C55.0785 43.3284 54.0603 41.8131 53.3616 40.145C52.6376 38.4207 52.2646 36.5693 52.2646 34.6991C52.2646 32.8289 52.6376 30.9775 53.3616 29.2532C54.0669 27.5887 55.0843 26.0746 56.3589 24.7927C57.6434 23.5211 59.1569 22.5042 60.8195 21.7954C62.5458 21.071 64.3992 20.6979 66.2713 20.6979C68.1434 20.6979 69.9968 21.071 71.7231 21.7954C73.3937 22.5063 74.9121 23.5319 76.1954 24.8163L72.9267 28.085C72.0551 27.209 71.0209 26.5116 69.8822 26.0317C68.7418 25.5565 67.5186 25.3119 66.2831 25.3119C65.0476 25.3119 63.8244 25.5565 62.684 26.0317C61.5487 26.5116 60.5184 27.2091 59.6513 28.085C58.7732 28.9573 58.072 29.9911 57.5862 31.1295C57.1167 32.2506 56.876 33.4542 56.8782 34.6696C56.8747 35.9043 57.1154 37.1274 57.5862 38.2687C58.0717 39.4108 58.7728 40.4485 59.6513 41.325C60.5218 42.1988 61.5562 42.8921 62.6953 43.3652C63.8343 43.8383 65.0556 44.0818 66.289 44.0818C67.5224 44.0818 68.7436 43.8383 69.8827 43.3652C71.0218 42.8921 72.0562 42.1988 72.9267 41.325L76.1954 44.5937Z" fill="white"/>
<path d="M82.7326 48.2047H78.1187V21.3115H82.7326V48.2047Z" fill="white"/>
<path d="M108.965 44.5937C107.685 45.8769 106.171 46.9024 104.504 47.6147C102.776 48.3314 100.924 48.7003 99.0526 48.7003C97.1817 48.7003 95.3291 48.3314 93.6008 47.6147C90.2407 46.1815 87.5644 43.5052 86.1312 40.145C85.4071 38.4207 85.0342 36.5693 85.0342 34.6991C85.0342 32.8289 85.4071 30.9775 86.1312 29.2532C87.5554 25.8897 90.2351 23.2143 93.6008 21.7954C95.3271 21.071 97.1805 20.6979 99.0526 20.6979C100.925 20.6979 102.778 21.071 104.504 21.7954C106.173 22.5042 107.688 23.5302 108.965 24.8163L105.696 28.085C104.829 27.2091 103.799 26.5116 102.664 26.0317C101.518 25.5469 100.285 25.3019 99.0408 25.3119C97.8243 25.3102 96.62 25.5551 95.5007 26.0317C93.2047 27.0057 91.3769 28.8335 90.4029 31.1295C89.9334 32.2506 89.6927 33.4542 89.6949 34.6696C89.6808 35.9062 89.9131 37.1332 90.3784 38.279C90.8437 39.4247 91.5325 40.4663 92.4048 41.343C93.277 42.2196 94.3151 42.9137 95.4586 43.3847C96.602 43.8557 97.8278 44.0942 99.0644 44.0863C100.305 44.0967 101.536 43.8642 102.687 43.4019C103.821 42.9255 104.852 42.232 105.72 41.3604L108.965 44.5937Z" fill="white"/>
<path d="M122.547 20.6979C124.42 20.6878 126.276 21.0614 127.999 21.7954C131.365 23.2105 134.042 25.8877 135.457 29.2532C136.181 30.9775 136.554 32.829 136.554 34.6991C136.554 36.5693 136.181 38.4207 135.457 40.145C134.038 43.5107 131.362 46.1905 127.999 47.6147C126.273 48.3336 124.422 48.7037 122.553 48.7037C120.684 48.7037 118.833 48.3336 117.107 47.6147C113.747 46.1815 111.071 43.5052 109.638 40.145C108.913 38.4207 108.541 36.5693 108.541 34.6991C108.541 32.829 108.913 30.9775 109.638 29.2532C111.062 25.8897 113.741 23.2143 117.107 21.7954C118.826 21.06 120.678 20.6864 122.547 20.6979V20.6979ZM122.547 25.3119C121.331 25.3102 120.126 25.5551 119.007 26.0317C117.868 26.5116 116.834 27.2091 115.963 28.085C115.084 28.9544 114.386 29.9892 113.909 31.1295C113.44 32.2506 113.199 33.4542 113.201 34.6696C113.196 35.9068 113.438 37.1326 113.912 38.2753C114.386 39.418 115.083 40.4548 115.963 41.325C117.284 42.6202 118.954 43.5029 120.769 43.8654C122.583 44.2279 124.464 44.0546 126.182 43.3665C128.488 42.4086 130.322 40.5755 131.279 38.2687C131.741 37.125 131.977 35.903 131.976 34.6696C131.976 33.4555 131.74 32.253 131.279 31.1295C130.811 29.9875 130.117 28.9519 129.238 28.085C128.373 27.2063 127.342 26.5083 126.205 26.0317C125.048 25.5425 123.803 25.2974 122.547 25.3119V25.3119Z" fill="white"/>
<path d="M164.722 21.3705V47.7562H160.202V29.0644L151.494 42.5169L142.832 29.0644V47.7562H138.301V21.3705H143.245L151.505 34.1858L159.766 21.3705H164.722Z" fill="white"/>
<path d="M176.192 48.2047H171.578V21.3115H176.192V48.2047Z" fill="white"/>
<path d="M188.747 28.4272C189.927 28.4099 191.096 28.6557 192.169 29.147C193.176 29.6041 194.074 30.2721 194.801 31.1058C195.542 31.9599 196.118 32.9442 196.5 34.0087C196.896 35.1468 197.096 36.3439 197.09 37.5489V48.1692H192.476V37.5489C192.492 36.9509 192.38 36.3564 192.148 35.805C191.916 35.2536 191.569 34.7579 191.131 34.351C190.721 33.9328 190.23 33.6021 189.688 33.379C189.147 33.1559 188.566 33.045 187.98 33.0529C187.387 33.045 186.798 33.1558 186.249 33.3788C185.699 33.6018 185.199 33.9325 184.779 34.3514C184.359 34.7703 184.027 35.269 183.803 35.8181C183.578 36.3672 183.466 36.9557 183.472 37.5489V48.1692H178.858V28.9346H183.472V30.3978C184.18 29.7988 184.976 29.3132 185.832 28.9582C186.758 28.5842 187.75 28.4035 188.747 28.4272V28.4272Z" fill="white"/>
<path d="M206.519 26.2559C205.983 26.4973 205.492 26.8285 205.068 27.2353C204.64 27.6526 204.292 28.1445 204.041 28.6868C203.783 29.2449 203.654 29.8538 203.663 30.4686H206.448L207.628 35.0826H203.746V48.2047H199.12V30.5041C199.138 29.2883 199.386 28.087 199.852 26.9639C200.314 25.8446 200.996 24.8293 201.858 23.9784C202.711 23.1174 203.731 22.4389 204.855 21.9842C205.979 21.5238 207.181 21.2872 208.395 21.2879V25.9137C207.753 25.8941 207.113 26.0107 206.519 26.2559V26.2559Z" fill="white"/>
<path d="M218.118 28.4272C219.48 28.4202 220.829 28.6891 222.083 29.2178C224.523 30.2419 226.464 32.1825 227.488 34.6224C228.01 35.8729 228.279 37.2145 228.279 38.5696C228.279 39.9248 228.01 41.2664 227.488 42.5169C226.838 44.0455 225.823 45.3914 224.532 46.4368C223.241 47.4821 221.713 48.195 220.083 48.5129C218.452 48.8308 216.769 48.7442 215.18 48.2605C213.59 47.7768 212.144 46.9108 210.967 45.7384C209.546 44.3086 208.58 42.489 208.194 40.5101C207.807 38.5312 208.017 36.4821 208.796 34.6224C209.302 33.4136 210.04 32.3152 210.967 31.3891C211.895 30.4641 212.993 29.7268 214.201 29.2178C215.441 28.695 216.773 28.4262 218.118 28.4272V28.4272ZM218.118 33.0529C217.39 33.0389 216.667 33.174 215.993 33.45C215.32 33.726 214.71 34.1371 214.201 34.6578C213.679 35.1692 213.267 35.7812 212.989 36.4566C212.711 37.1321 212.573 37.857 212.584 38.5873C212.574 39.3105 212.713 40.0281 212.991 40.6958C213.269 41.3634 213.68 41.9672 214.201 42.4697C214.701 42.9882 215.31 43.391 215.982 43.6497C216.662 43.9186 217.387 44.0548 218.118 44.0509C218.846 44.056 219.567 43.9197 220.242 43.6497C220.917 43.38 221.53 42.9788 222.048 42.4697C222.568 41.9672 222.98 41.3634 223.258 40.6958C223.536 40.0281 223.674 39.3105 223.665 38.5873C223.675 37.857 223.537 37.1321 223.26 36.4566C222.982 35.7812 222.569 35.1692 222.048 34.6578C221.531 34.1449 220.917 33.7391 220.243 33.4637C219.569 33.1883 218.847 33.0487 218.118 33.0529V33.0529Z" fill="white"/>
<path d="M237.46 28.97C238.44 28.5684 239.492 28.3716 240.551 28.3918V32.994C239.823 32.9821 239.099 33.1194 238.425 33.3975C237.752 33.6755 237.142 34.0883 236.634 34.6106C236.117 35.1256 235.708 35.7383 235.43 36.413C235.153 37.0876 235.012 37.8107 235.017 38.5402V48.1929H230.391V28.9346H235.017V30.4333C235.754 29.8274 236.577 29.3343 237.46 28.97V28.97Z" fill="white"/>
<path d="M263.09 28.4272C264.067 28.4069 265.034 28.6213 265.91 29.0526C266.704 29.438 267.386 30.0187 267.893 30.7401C268.435 31.495 268.835 32.3429 269.073 33.2417C269.336 34.2468 269.463 35.2827 269.451 36.3217V48.2047H264.837V36.3217C264.849 35.8835 264.771 35.4474 264.607 35.0411C264.442 34.6349 264.195 34.2672 263.881 33.9616C263.578 33.6579 263.219 33.417 262.823 33.2526C262.427 33.0883 262.002 33.0036 261.574 33.0036C261.145 33.0036 260.721 33.0883 260.325 33.2526C259.929 33.417 259.569 33.6579 259.267 33.9616C258.949 34.2649 258.698 34.6318 258.531 35.0385C258.365 35.4451 258.285 35.8824 258.299 36.3217V48.2047H253.65V36.3217C253.663 35.8824 253.584 35.4451 253.418 35.0385C253.251 34.6318 253 34.2649 252.682 33.9616C252.392 33.6417 252.033 33.3916 251.632 33.23C251.232 33.0786 250.808 33.0026 250.381 33.0057C249.948 33.0011 249.519 33.0821 249.117 33.2441C248.716 33.4061 248.351 33.646 248.043 33.9498C247.734 34.2536 247.489 34.6155 247.322 35.0145C247.154 35.4134 247.067 35.8416 247.065 36.2744V48.1575H242.451V28.9228H247.065V30.6339C247.789 30.0146 248.58 29.4802 249.425 29.0408C250.195 28.629 251.054 28.4103 251.927 28.4036C252.921 28.3645 253.907 28.6058 254.771 29.0998C255.558 29.6041 256.24 30.2575 256.777 31.0232C257.542 30.23 258.456 29.5963 259.467 29.1588C260.609 28.6603 261.844 28.4109 263.09 28.4272V28.4272Z" fill="white"/>
<path d="M284.909 21.5475L280.212 27.0465H277.829L281.18 21.5475H284.909Z" fill="white"/>
<path d="M304.214 48.2047H299.978C299.134 48.2103 298.299 48.0415 297.523 47.7091C296.772 47.3872 296.091 46.9222 295.517 46.3402C294.948 45.7568 294.491 45.0726 294.172 44.3223C293.84 43.5429 293.671 42.7034 293.676 41.8561V25.0877L298.29 23.9076V31.2593H300.981L302.161 35.8733H298.314V41.8324C298.317 42.2759 298.495 42.7002 298.81 43.0125C298.96 43.1743 299.143 43.303 299.346 43.3904C299.549 43.4778 299.768 43.5219 299.99 43.5199H303.07L304.214 48.2047Z" fill="white"/>
<path d="M305.749 21.2762H310.362V25.9137H305.749V21.2762ZM305.749 48.2047V28.97H310.362V48.2047H305.749Z" fill="white"/>
<path d="M329.833 45.7383C328.655 46.908 327.209 47.7716 325.62 48.2536C324.031 48.7357 322.349 48.8216 320.72 48.5039C319.09 48.1861 317.563 47.4744 316.272 46.4308C314.981 45.3872 313.965 44.0435 313.313 42.5169C312.79 41.2664 312.521 39.9247 312.521 38.5696C312.521 37.2145 312.79 35.8728 313.313 34.6224C314.337 32.1825 316.277 30.2419 318.717 29.2178C319.972 28.6962 321.317 28.4276 322.676 28.4276C324.035 28.4276 325.381 28.6962 326.635 29.2178C327.843 29.7268 328.941 30.4641 329.869 31.3891L326.6 34.6578C326.089 34.1361 325.477 33.7246 324.801 33.4486C324.125 33.1726 323.4 33.0379 322.67 33.0529C321.944 33.0489 321.224 33.1887 320.551 33.4641C319.879 33.7396 319.268 34.1452 318.753 34.6578C318.231 35.1692 317.819 35.7811 317.541 36.4566C317.263 37.1321 317.125 37.857 317.136 38.5873C317.126 39.3105 317.265 40.028 317.543 40.6957C317.821 41.3634 318.232 41.9671 318.753 42.4696C319.27 42.9788 319.884 43.3799 320.558 43.6497C321.229 43.9196 321.947 44.0559 322.67 44.0509C323.402 44.0716 324.13 43.9383 324.807 43.6598C325.484 43.3814 326.095 42.9638 326.6 42.4342L329.833 45.7383Z" fill="white"/>
<path d="M291.411 28.9346V48.2047H286.797V38.5873C286.801 37.8582 286.661 37.1355 286.384 36.4611C286.107 35.7867 285.698 35.1742 285.182 34.6592C284.666 34.1442 284.053 33.737 283.378 33.4612C282.703 33.1854 281.98 33.0467 281.251 33.0529C280.519 33.0531 279.794 33.1933 279.115 33.466C278.45 33.7403 277.845 34.1411 277.333 34.646C276.809 35.1557 276.395 35.7674 276.117 36.4432C275.839 37.1191 275.703 37.8448 275.716 38.5756C275.704 39.299 275.842 40.0172 276.12 40.6852C276.398 41.3532 276.811 41.9566 277.333 42.4579C277.834 42.9764 278.442 43.3792 279.115 43.6379C279.794 43.9068 280.519 44.043 281.251 44.0391C282.554 44.0317 283.831 43.6686 284.944 42.9889V47.7799C283.656 48.3827 282.247 48.6815 280.826 48.6531C279.484 48.6675 278.154 48.4022 276.92 47.8742C275.748 47.3641 274.692 46.6214 273.816 45.6912C272.937 44.759 272.248 43.6649 271.787 42.4697C270.811 39.9287 270.811 37.1162 271.787 34.5752C272.251 33.378 272.94 32.2805 273.816 31.3419C274.718 30.3929 275.806 29.64 277.012 29.1304C278.218 28.6207 279.517 28.3653 280.826 28.38C281.965 28.3635 283.098 28.5596 284.165 28.9582C285.094 29.3167 285.964 29.8098 286.75 30.4215V28.8874L291.411 28.9346Z" fill="white"/>
<path d="M350.531 28.9346V48.2047H345.917V38.5873C345.922 37.8582 345.781 37.1355 345.504 36.4611C345.227 35.7867 344.818 35.1742 344.302 34.6592C343.786 34.1442 343.173 33.737 342.498 33.4612C341.823 33.1854 341.1 33.0467 340.371 33.0529C339.639 33.0531 338.914 33.1933 338.235 33.466C337.57 33.7403 336.965 34.1411 336.453 34.646C335.931 35.1574 335.519 35.7694 335.241 36.4448C334.963 37.1203 334.826 37.8452 334.836 38.5756C334.826 39.2988 334.965 40.0163 335.243 40.684C335.521 41.3517 335.933 41.9553 336.453 42.4579C336.954 42.9764 337.562 43.3792 338.235 43.6379C338.915 43.9068 339.64 44.043 340.371 44.0391C341.674 44.0317 342.952 43.6686 344.064 42.9889V47.7799C342.776 48.3827 341.367 48.6815 339.946 48.6531C338.604 48.6675 337.274 48.4022 336.04 47.8742C334.868 47.3641 333.812 46.6214 332.936 45.6912C332.062 44.7559 331.373 43.6626 330.907 42.4697C329.931 39.9287 329.931 37.1162 330.907 34.5752C331.375 33.3801 332.064 32.2835 332.936 31.3419C333.838 30.3929 334.926 29.64 336.132 29.1304C337.338 28.6207 338.637 28.3653 339.946 28.38C341.085 28.3635 342.218 28.5596 343.285 28.9582C344.214 29.3167 345.085 29.8098 345.87 30.4215V28.8874L350.531 28.9346Z" fill="white"/>
</svg>
